<svg xmlns="http://www.w3.org/2000/svg" viewBox="0 0 539.49 403.48"><defs><style>.cls-1,.cls-2,.cls-3{fill:#1c3664;}.cls-1,.cls-2{stroke:#1c3664;}.cls-1,.cls-2,.cls-4{stroke-miterlimit:10;}.cls-1,.cls-4{stroke-width:3px;}.cls-2{stroke-width:4px;}.cls-4{fill:none;stroke:#fff;}</style></defs><title>Asset 3</title><g id="Layer_2" data-name="Layer 2"><g id="Layer_1-2" data-name="Layer 1"><path class="cls-1" d="M435.95,219.49c3.41-13.16-17.3-20.76-26.43-23.38a159.44,159.44,0,0,0-23.38-4.76c-24.32-3.15-61.76-3.85-81.88,12.17-7.06,5.62-9.51,19.84-2.33,26.21,9.18,8.14,23.69-.75,33.18-3.59,22.84-6.86,48.79-12.75,72.26-5.47C415,223,423,226.17,431.13,224A6.22,6.22,0,0,0,435.95,219.49Z"/><path class="cls-2" d="M356.63,234.93c-8.59,1.73-16.84,4.47-23.68,8.43-7.77,4.5-11.74,16.69-.42,20.2,8.45,2.61,17.91-2.16,25.64-4.24,8.32-2.25,15.66-1.59,24.32-.92,9.39.73,26.94,6.59,33.68-1.4,5.7-6.75,1.82-14.19-6.63-17.91C393.69,232.11,374.14,231.39,356.63,234.93Z"/><path class="cls-3" d="M513.46,102.28c-7-74-77.5-69.5-77.5-69.5-14-8.5-24.5,3.5-24.5,3.5s4.5,8.5-2.5-3.5-26-11.5-26-11.5l-4.5-3c-4-6.5-16.28-11.62-16.28-11.62-60-19.87-84.09,22.22-84.09,22.22A62.31,62.31,0,0,1,263,37.5a60.59,60.59,0,0,1-11.08,2.93,74.08,74.08,0,0,0-10.07-.21c-10.59.29-21.27,2.2-30.75,7.08-16.23,8.34-27.23,25.53-29.64,43.43-.44,3.27-1.28,28,5.85,26-14.37,4.18-27.47,6.28-39.56,16.19-18.43,15.1-17.59,47.23-2.81,64.31,18.17,21,44.75,29.77,71.87,28.71a136.33,136.33,0,0,0,41.68-8.13c8-3,52-29.5,52-29.5,67.5-29,136,13.5,136,13.5,40,19,65.5,6.5,65.5,6.5,49-31,19.5-90,10.5-97a24.08,24.08,0,0,1-4.89-5.23Z"/><path class="cls-3" d="M71.27,400.39V351.08A104.48,104.48,0,0,0,70.66,339a26.32,26.32,0,0,0-2.35-8.62,11.73,11.73,0,0,0-5-5.23,17.77,17.77,0,0,0-8.45-1.74,19,19,0,0,0-13.33,4.88,25.8,25.8,0,0,0-7.4,12.2v59.93H20.22V313.28H30l2.61,10.63h.7a41,41,0,0,1,10.89-9.15q6.18-3.57,16.12-3.57,8.36,0,13.68,3.22t8.28,11.24A28.24,28.24,0,0,1,93.31,315a32.87,32.87,0,0,1,15.94-3.83,40.13,40.13,0,0,1,12.37,1.66,17.35,17.35,0,0,1,8.36,5.84A26.84,26.84,0,0,1,134.77,330a91.8,91.8,0,0,1,1.48,18.12v52.27H122.32V347.95a84.68,84.68,0,0,0-.61-10.89,19.92,19.92,0,0,0-2.44-7.67,11.25,11.25,0,0,0-5.05-4.53,20.45,20.45,0,0,0-8.45-1.48q-8.71,0-13.59,4.88t-7,13.94v58.19Z"/><path class="cls-3" d="M34.08,401H20.38V332q0-6.1-2.09-8.71a7.15,7.15,0,0,0-5.92-2.61,36.71,36.71,0,0,0-4.88.35,28.05,28.05,0,0,0-5.92,1.57L0,311.57a29.09,29.09,0,0,1,7.75-2.26,50.87,50.87,0,0,1,8.62-.87q7.84,0,12.89,4.44t5.05,15.07v72.46Z"/><path class="cls-3" d="M225.28,394.42A39.39,39.39,0,0,1,212.13,401a56.94,56.94,0,0,1-16.81,2.44,42.54,42.54,0,0,1-17.25-3.22A30.67,30.67,0,0,1,166,391a40,40,0,0,1-7-14.37,72,72,0,0,1-2.26-18.82q0-22.3,9.93-34t28.4-11.67A54.84,54.84,0,0,1,207,313.49a25,25,0,0,1,18.29,15.33q3,6.71,3,17.68a86.32,86.32,0,0,1-1,12.72H171.27a53.27,53.27,0,0,0,1.57,13.59,26.44,26.44,0,0,0,4.88,10,21.13,21.13,0,0,0,8.62,6.27,34.22,34.22,0,0,0,13,2.18,35.4,35.4,0,0,0,11.85-2.09,25.16,25.16,0,0,0,8.89-4.88Zm-30-70q-10.28,0-16.46,5.4t-7.4,18.47h43.21q0-13.24-5.05-18.56T195.32,324.38Z"/><path class="cls-3" d="M291.31,327.69a31.48,31.48,0,0,0-9.93-1.74q-7.49,0-11.85,4.1a17.81,17.81,0,0,0-5.4,10.37v61H250.2V314.28H260l2.61,10.63h.7a26.87,26.87,0,0,1,7.93-9.15q4.61-3.22,11.76-3.22a42.82,42.82,0,0,1,11.32,1.74Z"/><path class="cls-3" d="M324.94,380q0,6.1,2.09,8.71a7.15,7.15,0,0,0,5.92,2.61,36.71,36.71,0,0,0,4.88-.35,28.05,28.05,0,0,0,5.92-1.57l1.57,11a29.09,29.09,0,0,1-7.75,2.26,50.87,50.87,0,0,1-8.62.87q-7.84,0-12.89-4.44T311,384V279.43h13.94Z"/><path class="cls-3" d="M360.3,287.8a9.69,9.69,0,0,1,2.7-6.88,9,9,0,0,1,6.88-2.87,9.89,9.89,0,0,1,7.14,2.87,9.26,9.26,0,0,1,3,6.88,8.45,8.45,0,0,1-3,6.62,10.43,10.43,0,0,1-7.14,2.61,9.49,9.49,0,0,1-6.88-2.61A8.81,8.81,0,0,1,360.3,287.8Zm3,26.48H377.2v87.11H363.27Z"/><path class="cls-3" d="M462.92,401.39V351.74q0-13.59-3.92-20.47t-14.37-6.88q-9.24,0-15.24,5a26.45,26.45,0,0,0-8.45,12.46v59.59H407V314.28h9.76l2.61,10.63h.7a31.56,31.56,0,0,1,11.24-9.15,36.85,36.85,0,0,1,16.81-3.57,42.94,42.94,0,0,1,12.54,1.66,18.8,18.8,0,0,1,9,5.84,27.81,27.81,0,0,1,5.4,11.24,72.7,72.7,0,0,1,1.83,17.86v52.62Z"/><path class="cls-3" d="M400.35,83.49c-6.31-3.08-16.69-7.55-21.4-6.21"/><path class="cls-4" d="M387.74,28.47c-12.08,9.08-22.45,25.64-22.22,41,.25,16.74,14.19,31.59,28.87,38.34,0,0,37.9,20.83,15.9,50.83"/><path class="cls-4" d="M531,118.28s-14.5-29-53.5-6.5c-12.92,7.45-22.68,18.61-17.79,33.93,6.51,20.39,37.36,28.64,48.79,8.07"/><path class="cls-4" d="M473.11,160.81s-.93,19.19,14.46,27.44"/><path class="cls-4" d="M152,126.78c17.13-19.76,45.63-8.08,61.61,7.52,16.32,15.92,21.74,48.41-3.61,58.65"/><path class="cls-4" d="M321.63,2c-36.93,5.52-48,31.56-48,31.56-4.09,8.77-3.25,20.79-.55,28.71,7.11,20.89,38.48,30.55,56.2,17.28,11.42-8.56,13.72-24,10-37.05"/><path class="cls-4" d="M278,71.78c-4.69,2-9.33,4-13.46,7.51-13,11-18.89,30.92-14,47.08,9.93,32.9,61.1,32.76,87.81,29.57"/><path class="cls-4" d="M272.46,32.78s-25.5,4-27.5,26.5"/><path class="cls-4" d="M248.46,100.28s-20.5-19.5-40-1.5"/><path class="cls-4" d="M228.46,91.28s7.5-20-8-25.5"/><path class="cls-4" d="M304,33.78s-17,10-7,29"/><path class="cls-4" d="M318.13,57.28c-13.27-8.9-20.46-29-11-42.82C315.75,1.81,331.61.34,345.83,2.12a58.14,58.14,0,0,1,28.08,11.57c7.27,5.55,12.86,13.61,16.79,21.69L392,39.28"/><path class="cls-4" d="M214,227c-18.34-3.33-33.24-16.14-35.45-34.64-2.15-18,8-42.3,29.78-36"/><path class="cls-4" d="M166,145.62s-15.67,13.67-3.67,30.33c0,0,6.67,7.33,15.67,2"/><path class="cls-4" d="M410.49,33.53a64.53,64.53,0,0,1,7.8-3c8-2.32,19.88-1.83,25.18,10.85,4.54,10.86,3.07,25.79-6.69,33.21-6.38,4.84-16.11,4.59-24.93,1.45-7.89-2.81-15-7.94-18.39-13.8"/><path class="cls-4" d="M481.29,109.28"/><path class="cls-4" d="M458.61,68.1c9.72-.78,33.67,1.78,28.68,38.52"/><path class="cls-4" d="M383.48,101.1c-12.76,9-52.62,30.74-103.19-2.48"/><path class="cls-4" d="M307.62,110s-9.78,22.23-29.33,10.7"/><path class="cls-4" d="M381,20.78c13.3,1.07,32.78,6.93,32.5,23.5"/><path class="cls-4" d="M390,84.28s15,1,19.5-8.5"/><path class="cls-4" d="M513.46,104.28c-5-78-77.5-71.5-77.5-71.5"/><path class="cls-4" d="M292.29,156s-4.67,23.33-30,20"/><path class="cls-4" d="M409,118.62s24.67-3.33,29.33,14"/></g></g></svg>