<svg xmlns="http://www.w3.org/2000/svg" viewBox="0 0 405.64 266.32"><defs><style>.cls-1,.cls-2,.cls-3{fill:#1c3664;}.cls-1,.cls-2{stroke:#1c3664;}.cls-1,.cls-2,.cls-4{stroke-miterlimit:10;}.cls-1,.cls-4{stroke-width:3px;}.cls-2{stroke-width:4px;}.cls-4{fill:none;stroke:#fff;}</style></defs><title>Logo</title><g id="Layer_2" data-name="Layer 2"><g id="Layer_1-2" data-name="Layer 1"><path class="cls-1" d="M302.1,219.49c3.41-13.16-17.3-20.76-26.43-23.38a159.44,159.44,0,0,0-23.38-4.76c-24.32-3.15-61.76-3.85-81.88,12.17-7.06,5.62-9.51,19.84-2.33,26.21,9.18,8.14,23.69-.75,33.18-3.59,22.84-6.86,48.79-12.75,72.26-5.47,7.65,2.37,15.68,5.52,23.76,3.37A6.22,6.22,0,0,0,302.1,219.49Z"/><path class="cls-2" d="M222.78,234.93c-8.59,1.73-16.84,4.47-23.68,8.43-7.77,4.5-11.74,16.69-.42,20.2,8.45,2.61,17.91-2.16,25.64-4.24,8.32-2.25,15.66-1.59,24.32-.92,9.39.73,26.94,6.59,33.68-1.4,5.7-6.75,1.82-14.19-6.63-17.91C259.84,232.11,240.28,231.39,222.78,234.93Z"/><path class="cls-3" d="M379.6,102.28c-7-74-77.5-69.5-77.5-69.5-14-8.5-24.5,3.5-24.5,3.5s4.5,8.5-2.5-3.5-26-11.5-26-11.5l-4.5-3c-4-6.5-16.28-11.62-16.28-11.62-60-19.87-84.09,22.22-84.09,22.22a62.31,62.31,0,0,1-15.11,8.62A60.59,60.59,0,0,1,118,40.43,74.08,74.08,0,0,0,108,40.22c-10.59.29-21.27,2.2-30.75,7.08C61,55.64,50,72.82,47.58,90.72c-.44,3.27-1.28,28,5.85,26C39.06,120.88,26,123,13.87,132.89-4.56,148-3.72,180.12,11.06,197.2c18.17,21,44.75,29.77,71.87,28.71a136.33,136.33,0,0,0,41.68-8.13c8-3,52-29.5,52-29.5,67.5-29,136,13.5,136,13.5,40,19,65.5,6.5,65.5,6.5,49-31,19.5-90,10.5-97a24.08,24.08,0,0,1-4.89-5.23Z"/><path class="cls-3" d="M266.5,83.49c-6.31-3.08-16.69-7.55-21.4-6.21"/><path class="cls-4" d="M253.89,28.47c-12.08,9.08-22.45,25.64-22.22,41,.25,16.74,14.19,31.59,28.87,38.34,0,0,37.9,20.83,15.9,50.83"/><path class="cls-4" d="M397.1,118.28s-14.5-29-53.5-6.5c-12.92,7.45-22.68,18.61-17.79,33.93,6.51,20.39,37.36,28.64,48.79,8.07"/><path class="cls-4" d="M339.26,160.81s-.93,19.19,14.46,27.44"/><path class="cls-4" d="M18.1,126.78c17.13-19.76,45.63-8.08,61.61,7.52C96,150.22,101.45,182.71,76.1,193"/><path class="cls-4" d="M187.77,2c-36.93,5.52-48,31.56-48,31.56-4.09,8.77-3.25,20.79-.55,28.71,7.11,20.89,38.48,30.55,56.2,17.28,11.42-8.56,13.72-24,10-37.05"/><path class="cls-4" d="M144.1,71.78c-4.69,2-9.33,4-13.46,7.51-13,11-18.89,30.92-14,47.08,9.93,32.9,61.1,32.76,87.81,29.57"/><path class="cls-4" d="M138.6,32.78s-25.5,4-27.5,26.5"/><path class="cls-4" d="M114.6,100.28s-20.5-19.5-40-1.5"/><path class="cls-4" d="M94.6,91.28s7.5-20-8-25.5"/><path class="cls-4" d="M170.1,33.78s-17,10-7,29"/><path class="cls-4" d="M184.28,57.28c-13.27-8.9-20.46-29-11-42.82C181.9,1.81,197.76.34,212,2.12a58.14,58.14,0,0,1,28.08,11.57c7.27,5.55,12.86,13.61,16.79,21.69l1.25,3.91"/><path class="cls-4" d="M80.1,227c-18.34-3.33-33.24-16.14-35.45-34.64-2.15-18,8-42.3,29.78-36"/><path class="cls-4" d="M32.1,145.62S16.44,159.28,28.44,176c0,0,6.67,7.33,15.67,2"/><path class="cls-4" d="M276.64,33.53a64.53,64.53,0,0,1,7.8-3c8-2.32,19.88-1.83,25.18,10.85,4.54,10.86,3.07,25.79-6.69,33.21-6.38,4.84-16.11,4.59-24.93,1.45-7.89-2.81-15-7.94-18.39-13.8"/><path class="cls-4" d="M347.44,109.28"/><path class="cls-4" d="M324.76,68.1c9.72-.78,33.67,1.78,28.68,38.52"/><path class="cls-4" d="M249.62,101.1c-12.76,9-52.62,30.74-103.19-2.48"/><path class="cls-4" d="M173.77,110s-9.78,22.23-29.33,10.7"/><path class="cls-4" d="M247.1,20.78c13.3,1.07,32.78,6.93,32.5,23.5"/><path class="cls-4" d="M256.1,84.28s15,1,19.5-8.5"/><path class="cls-4" d="M379.6,104.28c-5-78-77.5-71.5-77.5-71.5"/><path class="cls-4" d="M158.44,156s-4.67,23.33-30,20"/><path class="cls-4" d="M275.1,118.62s24.67-3.33,29.33,14"/></g></g></svg>